<?xml version="1.0" encoding="utf-8"?>
<!-- Generator: Adobe Illustrator 25.2.0, SVG Export Plug-In . SVG Version: 6.00 Build 0)  -->
<svg version="1.1" id="Layer_1" xmlns="http://www.w3.org/2000/svg" xmlns:xlink="http://www.w3.org/1999/xlink" x="0px" y="0px"
	 viewBox="0 0 62.5 93.1" style="enable-background:new 0 0 62.5 93.1;" xml:space="preserve">
<style type="text/css">
	.st0{fill:#A20F5E;}
	.st1{fill:#DAC62F;}
	.st2{fill:none;stroke:#141414;stroke-width:3;stroke-miterlimit:10;}
	.st3{fill:#FFFFFF;}
	.st4{fill:#141414;}
</style>
<path class="st0" d="M5.4,32.9c-1.5,3.8-1,7.9-0.4,11.9l1.4,10.3L8,66.4L9.3,76c0.1,1.4,0.5,2.7,1.3,3.9c1.4,1.7,3.9,2.2,6.2,2.6
	c4,0.8,8.2,1.3,12.3,1.3c4.4-0.1,8.8-0.8,13-1.9c0.9-0.2,1.7-0.4,2.6-0.8c2.6-1.1,4.5-3.3,5.3-6c0.7-2.5,1-5.2,0.9-7.8l0.3-24.6
	c-0.1-2.6,0.2-5.1,0.7-7.7c0.3-0.7,0.5-1.5,0.7-2.2c-0.3-1-2.5,0.1-3.7,0.2l-15.1,2.2c-1.9,0.3-3.9,0.5-5.9,0.6
	c-1.7,0-3.3-0.1-5-0.3c-1.6-0.2-3.2-0.6-4.7-0.9c-2-0.4-4-0.7-6-1s-4-0.5-6-0.8L5.4,32.9z"/>
<path class="st1" d="M39.6,61.6c-1.7,0.8-3.2,1.9-4.4,3.2c-1.1,1.6-1.7,3.5-1.8,5.5c-0.4,3.2-0.3,6.9,1.8,9.3c1.5,1.7,3.7,2.6,6,2.3
	c1.2-0.2,2.3-0.5,3.4-1l3.2-1.3c0.7-0.2,1.3-0.6,1.8-1.2c0.3-0.6,0.5-1.2,0.5-1.9c0.5-5.4,0.8-10.9,0.7-16.4c0-0.2,0-0.4-0.1-0.6
	c-0.1-0.2-0.3-0.3-0.5-0.3c-1.7-0.6-3.4-0.9-5.2-0.8c-0.5,0-1,0-1.5,0.1c0.1,0.3,0.3,0.6,0,0.8c-0.4,0.3-0.8,0.5-1.3,0.7L39.6,61.6z
	"/>
<path class="st2" d="M6,33.4c4.3-0.4,8.6,0.4,12.9,1c5.5,0.7,11.2,1,16.8,1c5.3,0,10.7-0.3,15.9-1.5"/>
<path class="st1" d="M5.4,46.3c0.4,2.2,1.2,4.3,1.5,6.6c0.5,3.4,0,7,1.8,9.9c1.6-0.1,3.1-0.8,4.1-2c1.1-1.1,2-2.4,3.2-3.4
	c0.4-0.3,0.7-0.6,0.9-1c0.2-0.4,0.4-0.8,0.5-1.3l1-4.7c0.3-1.1,0.4-2.2,0.3-3.3c-0.2-1-0.6-1.9-1.1-2.8c-0.8-1.5-1.7-2.9-2.8-4.1
	c-1-0.9-2-1.7-3.1-2.3c-1-0.7-2.1-1.3-3.2-1.7c-0.8-0.3-1.7-0.3-2.6-0.2C5.5,36,5.1,36.1,5,36.3c-0.1,0.4-0.1,0.7-0.1,1.1
	c-0.1,1.9-0.1,3.8,0.1,5.7C5.1,44.2,5.2,45.2,5.4,46.3z"/>
<rect x="15.7" y="26.2" class="st3" width="15.3" height="15.3"/>
<rect x="32.7" y="43.4" transform="matrix(0.9748 -0.223 0.223 0.9748 -10.3673 10.2783)" class="st3" width="15.3" height="15.3"/>
<rect x="14.1" y="65.3" transform="matrix(0.464 -0.8858 0.8858 0.464 -52.9321 58.3443)" class="st3" width="15.3" height="15.3"/>
<path class="st4" d="M41.2,68.1l4.2,2.8c0.5,0.2,1,0,1.2-0.4c0.1-0.1,0.1-0.3,0.1-0.5l-1.5-4.9c-0.1-0.5-0.5-0.8-1-0.7
	c-2.4,0.6-3,1.8-3.3,2.7C40.6,67.4,40.8,67.9,41.2,68.1z"/>
<path class="st4" d="M38.7,74.2c0.2,0.4,0.6,0.6,1,0.5l4.9-1c0.4-0.1,0.7-0.6,0.6-1c-0.1-0.2-0.2-0.4-0.4-0.5l-4.5-2.4
	c-0.4-0.3-0.9-0.2-1.2,0.1c0,0,0,0,0,0.1C37.8,72.1,38.3,73.4,38.7,74.2z"/>
<path class="st4" d="M61,4.2c-0.3-1.1-1.4-1.7-2.4-1.4c0,0,0,0-0.1,0l-9,2.5c-2.3,0.6-4.1,2.3-5.1,4.4l-4.3,9.5c-1-0.1-2-0.2-3-0.2
	h-1c-11-0.6-20.5,0.1-28.2,2.2c-1.2,0.3-2.3,0.9-3.2,1.7c-0.1,0-0.1,0-0.1-0.1l0,0l-0.1,0.3c-1.7,1.7-2.6,4.1-2.3,6.5l5.4,52.5
	c0.3,2.9,2.2,5.3,4.9,6.3c5,1.8,10.2,2.6,15.5,2.6c6,0,11.9-1,17.6-2.8c3.1-1,5.3-3.8,5.5-7c0.3-4.4,0.6-10.3,1-16.5
	c0-0.1,0.1-0.3,0-0.4c0.5-8.7,1.1-17.9,1.7-24c0.2-1,0.3-1.9,0.3-2.9v-0.3c0.3-3.3,0.6-6.2,0.9-8.4c0.5-4.2-2.5-8-6.7-8.5
	c0,0,0,0,0,0c-1.2-0.2-2.5-0.3-3.7-0.5l3.7-8.3c0.5-1.1,1.4-1.9,2.5-2.2l9-2.5C60.7,6.3,61.2,5.2,61,4.2z M35.9,22.8l1.1,0.1
	c0.5,0,1.1,0.1,1.6,0.1l-2,4.5c-1.1,0.2-2.3,0.3-3.4,0.3c-0.2-0.6-0.5-1.1-0.9-1.6c-0.8-0.8-1.8-1.3-2.9-1.4l-11.1-0.6
	c-1.4-0.1-2.8,0.6-3.6,1.8c-1.7-0.4-3.4-0.8-5-1.4C18.3,22.8,27.1,22.2,35.9,22.8L35.9,22.8z M14.7,76.7l-1.1-0.6
	c-0.9-0.5-1.2-1.7-0.7-2.6l4.9-8.7c0.2-0.4,0.6-0.7,1.1-0.9c0.5-0.1,1-0.1,1.4,0.2l0,0L14.7,76.7z M17.6,80.9c-0.1,0-0.3,0-0.4-0.1
	l0.1-0.1L17.6,80.9z M23.8,66l6.2,3.4c0.1,0.1,0.2,0.1,0.3,0.2c0.7,0.6,0.9,1.6,0.4,2.4l-4.9,8.7c-0.2,0.4-0.6,0.7-1.1,0.9
	c-0.5,0.1-1,0.1-1.4-0.2l-5.1-2.8L23.8,66z M31.9,74.6c0.3,2.4,0.9,4.7,1.9,6.9c-2,0.3-4,0.4-6,0.4L31.9,74.6z M32.4,68.6
	c-0.2-0.2-0.4-0.5-0.6-0.7c-0.2-0.2-0.4-0.3-0.6-0.4L24.8,64l5.7-12.7l1.2,6.5c0.4,2,2.1,3.4,4.1,3.4c0.3,0,0.5,0,0.8-0.1l0.9-0.2
	C35,62.9,33.3,65.6,32.4,68.6L32.4,68.6z M30.6,39.1c-0.1,1-0.9,1.8-1.9,1.8l-11.2-0.6h-0.2c-0.5-0.6-1-1.2-1.6-1.8v-0.2l0.4-6.8
	c1.1,0.2,2.2,0.4,3.4,0.6c3.4,0.6,6.9,0.8,10.4,0.8H31L30.6,39.1z M17.5,26.6c0.2-0.1,0.4-0.1,0.6-0.1l11.2,0.6c0.5,0,1,0.2,1.3,0.6
	c0.1,0.1,0.1,0.1,0.1,0.2C26.2,28,21.8,27.5,17.5,26.6L17.5,26.6z M33.2,32.8c0.4,0,0.7-0.1,1.1-0.1l-1.2,2.7L33.2,32.8z M5.9,29.2
	v-0.5c2,0.7,4.7,1.5,7.9,2.3l-0.3,5.8c-0.6-0.4-1.2-0.8-1.9-1.1c-1.6-0.8-3.4-1.3-5.2-1.5L5.9,29.2z M9,59.7
	c0.7-0.4,1.2-0.9,1.7-1.5c0.3-0.4,0.2-0.9-0.1-1.2c0,0,0,0-0.1,0l-2-1.8L8.3,53l3.5,2.7c0.3,0.3,0.8,0.3,1.1,0
	c0.7-0.6,1.7-1.5,1.4-4c-0.1-0.5-0.5-0.8-1-0.8l-5.1,0.2H8.1l-0.2-1.5c0.1,0.1,0.3,0.1,0.5,0.1l5-0.7c0.4,0,0.8-0.3,0.8-0.8
	c0,0,0,0,0,0c0.1-0.9,0.1-2.3-1.8-3.9c-0.4-0.3-0.9-0.2-1.2,0.1c0,0,0,0,0,0.1l-3.4,3.6l-0.2-2l2.3-3c0.3-0.3,0.3-0.8,0-1.1
	c-0.7-0.9-1.8-1.4-2.9-1.4L6.8,38c1.1,0.2,2.1,0.6,3.1,1c6.3,3,8.9,10.6,5.8,16.9c0,0,0,0,0,0c-1.3,2.6-3.4,4.7-6,5.9
	c-0.2,0.1-0.3,0.2-0.4,0.3L9,59.7z M9.5,65.2c0.3,0.2,0.6,0.2,0.9,0.2c0.3,0,0.5-0.1,0.8-0.2c8.2-3.8,11.7-13.6,7.9-21.8
	c-0.1-0.3-0.3-0.5-0.4-0.8l9.7,0.5h0.2c0.3,0,0.7-0.1,1-0.1l-8.4,19c-2-1-4.4-0.3-5.5,1.7l-4.9,8.7c-0.2,0.4-0.3,0.8-0.4,1.2
	L9.5,65.2z M10.7,76.1c0.2,0.6,0.6,1.1,1.1,1.5c0.2,0.2,0.4,0.3,0.6,0.4l1.3,0.7l-0.4,0.8c0,0.1-0.1,0.2-0.1,0.3
	c-0.9-0.3-1.7-0.5-2.3-0.7L10.7,76.1z M44.4,84.7c-15,4.6-25.7,2.1-30.7,0.2c-1.1-0.4-1.9-1.2-2.3-2.3c5.1,1.6,10.4,2.3,15.8,2.3
	c6.8,0,13.5-1.2,19.9-3.6C47,82.9,45.9,84.3,44.4,84.7L44.4,84.7z M48.3,63.1l-0.9,0.3c-0.4,0.2-0.6,0.6-0.5,1l1,4.9l0,0
	c-0.2,3.1-0.4,6-0.5,8.7c-1.1,0.4-2.1,0.8-3.1,1.1l1.9-2.9c0.2-0.5,0-1-0.4-1.2c-0.1-0.1-0.3-0.1-0.5-0.1l-4.9,1.5
	c-0.5,0.1-0.8,0.5-0.7,1c0.2,1,0.7,1.9,1.4,2.6c-1.1,0.3-2.3,0.5-3.4,0.8c0-0.3-0.1-0.6-0.2-0.8c-1.3-2.7-1.9-5.7-1.8-8.7
	c1-6.2,6.5-10.8,12.8-10.6C48.4,61.5,48.3,62.3,48.3,63.1L48.3,63.1z M48.2,55.9c-0.3,0.4-0.7,0.7-1.2,0.8l-10.9,2.1
	c-1,0.2-2-0.5-2.2-1.5l-1.8-9.7l0.9-2.1c0.2-0.1,0.3-0.2,0.5-0.2l10.9-2.1h0.3c0.9,0,1.7,0.6,1.9,1.5l1.9,9.8
	C48.6,55,48.5,55.5,48.2,55.9L48.2,55.9z M50.1,37.3L50.1,37.3c-0.2,2.4-0.5,5.6-0.8,9.3l-0.4-2.3c-0.4-2-2.1-3.4-4.1-3.4
	c-0.3,0-0.5,0-0.8,0.1l-9.9,1.9l4.8-10.7c4.3-0.7,8.4-2.2,12.2-4.2v0.3C50.8,30.7,50.5,33.8,50.1,37.3L50.1,37.3z M47.7,23.9
	c0.1,0,0.2,0.1,0.3,0.1c-2.1,1.1-4.2,1.9-6.5,2.5l1.4-3.1C44.4,23.5,46.1,23.7,47.7,23.9L47.7,23.9z"/>
</svg>
